<mxfile host="app.diagrams.net" modified="2021-10-25T12:27:00.564Z" agent="5.0 (Windows NT 10.0; Win64; x64) AppleWebKit/537.36 (KHTML, like Gecko) Chrome/94.0.4606.81 Safari/537.36" etag="C49LSDSCEBSwD5GShFl4" version="15.5.8" type="github">
  <diagram name="Page-1" id="099fd60b-425b-db50-ffb0-6b813814b670">
    <mxGraphModel dx="865" dy="449" grid="1" gridSize="10" guides="1" tooltips="1" connect="1" arrows="1" fold="1" page="1" pageScale="1" pageWidth="850" pageHeight="1100" background="none" math="0" shadow="0">
      <root>
        <mxCell id="0" />
        <mxCell id="1" parent="0" />
        <mxCell id="AR4hpozQpc_tkKagfJMo-14" style="edgeStyle=orthogonalEdgeStyle;rounded=0;orthogonalLoop=1;jettySize=auto;html=1;exitX=1;exitY=0.25;exitDx=0;exitDy=0;exitPerimeter=0;entryX=0;entryY=0.2;entryDx=0;entryDy=3;entryPerimeter=0;" edge="1" parent="1" source="AR4hpozQpc_tkKagfJMo-1" target="AR4hpozQpc_tkKagfJMo-3">
          <mxGeometry relative="1" as="geometry" />
        </mxCell>
        <object label="IF" id="AR4hpozQpc_tkKagfJMo-1">
          <mxCell style="verticalLabelPosition=bottom;shadow=0;dashed=0;align=center;html=1;verticalAlign=top;shape=mxgraph.electrical.logic_gates.t_type_flip-flop;" vertex="1" parent="1">
            <mxGeometry x="50" y="210" width="50" height="330" as="geometry" />
          </mxCell>
        </object>
        <mxCell id="AR4hpozQpc_tkKagfJMo-11" style="edgeStyle=orthogonalEdgeStyle;rounded=0;orthogonalLoop=1;jettySize=auto;html=1;exitX=1;exitY=0.5;exitDx=0;exitDy=-5;exitPerimeter=0;entryX=0;entryY=0.25;entryDx=0;entryDy=0;entryPerimeter=0;" edge="1" parent="1" source="AR4hpozQpc_tkKagfJMo-7" target="AR4hpozQpc_tkKagfJMo-1">
          <mxGeometry relative="1" as="geometry">
            <Array as="points">
              <mxPoint x="210" y="170" />
              <mxPoint x="50" y="170" />
            </Array>
          </mxGeometry>
        </mxCell>
        <mxCell id="AR4hpozQpc_tkKagfJMo-29" style="edgeStyle=orthogonalEdgeStyle;rounded=0;orthogonalLoop=1;jettySize=auto;html=1;exitX=0;exitY=0.6000000000000001;exitDx=0;exitDy=3;exitPerimeter=0;" edge="1" parent="1" source="AR4hpozQpc_tkKagfJMo-7">
          <mxGeometry relative="1" as="geometry">
            <mxPoint x="330" y="152.66666666666674" as="targetPoint" />
          </mxGeometry>
        </mxCell>
        <mxCell id="AR4hpozQpc_tkKagfJMo-7" value="mux" style="shadow=0;dashed=0;align=center;html=1;strokeWidth=1;shape=mxgraph.electrical.abstract.mux2;rotation=0;direction=west;" vertex="1" parent="1">
          <mxGeometry x="220" y="124" width="40" height="80" as="geometry" />
        </mxCell>
        <mxCell id="AR4hpozQpc_tkKagfJMo-3" value="+" style="shadow=0;dashed=0;align=center;html=1;strokeWidth=1;shape=mxgraph.electrical.abstract.mux2;" vertex="1" parent="1">
          <mxGeometry x="300" y="285" width="60" height="80" as="geometry" />
        </mxCell>
        <mxCell id="AR4hpozQpc_tkKagfJMo-10" value="INIT" style="text;html=1;align=center;verticalAlign=middle;resizable=0;points=[];autosize=1;strokeColor=none;fillColor=none;" vertex="1" parent="1">
          <mxGeometry x="330" y="140" width="40" height="20" as="geometry" />
        </mxCell>
        <mxCell id="AR4hpozQpc_tkKagfJMo-12" value="" style="endArrow=none;html=1;strokeWidth=1;rounded=0;entryX=0.01;entryY=0.387;entryDx=0;entryDy=0;entryPerimeter=0;" edge="1" parent="1" target="AR4hpozQpc_tkKagfJMo-13">
          <mxGeometry width="100" relative="1" as="geometry">
            <mxPoint x="130" y="170" as="sourcePoint" />
            <mxPoint x="230" y="430" as="targetPoint" />
            <Array as="points">
              <mxPoint x="130" y="430" />
            </Array>
          </mxGeometry>
        </mxCell>
        <mxCell id="AR4hpozQpc_tkKagfJMo-13" value="IM" style="whiteSpace=wrap;html=1;aspect=fixed;" vertex="1" parent="1">
          <mxGeometry x="270" y="400" width="80" height="80" as="geometry" />
        </mxCell>
        <mxCell id="AR4hpozQpc_tkKagfJMo-15" value="4" style="text;html=1;align=center;verticalAlign=middle;resizable=0;points=[];autosize=1;strokeColor=none;fillColor=none;" vertex="1" parent="1">
          <mxGeometry x="280" y="320" width="20" height="20" as="geometry" />
        </mxCell>
        <mxCell id="AR4hpozQpc_tkKagfJMo-18" value="" style="endArrow=none;html=1;rounded=0;exitX=1;exitY=0.25;exitDx=0;exitDy=0;entryX=0.067;entryY=0.617;entryDx=0;entryDy=0;entryPerimeter=0;" edge="1" parent="1" source="AR4hpozQpc_tkKagfJMo-13" target="AR4hpozQpc_tkKagfJMo-20">
          <mxGeometry width="50" height="50" relative="1" as="geometry">
            <mxPoint x="400" y="390" as="sourcePoint" />
            <mxPoint x="440" y="420" as="targetPoint" />
          </mxGeometry>
        </mxCell>
        <mxCell id="AR4hpozQpc_tkKagfJMo-20" value="ifid" style="rounded=0;whiteSpace=wrap;html=1;" vertex="1" parent="1">
          <mxGeometry x="632" y="210" width="30" height="340" as="geometry" />
        </mxCell>
        <mxCell id="AR4hpozQpc_tkKagfJMo-38" style="edgeStyle=orthogonalEdgeStyle;rounded=0;orthogonalLoop=1;jettySize=auto;html=1;exitX=0;exitY=0.25;exitDx=0;exitDy=0;entryX=0;entryY=0.6000000000000001;entryDx=0;entryDy=3;entryPerimeter=0;" edge="1" parent="1" source="AR4hpozQpc_tkKagfJMo-22" target="AR4hpozQpc_tkKagfJMo-34">
          <mxGeometry relative="1" as="geometry" />
        </mxCell>
        <mxCell id="AR4hpozQpc_tkKagfJMo-22" value="BP" style="rounded=0;whiteSpace=wrap;html=1;" vertex="1" parent="1">
          <mxGeometry x="492" y="550" width="120" height="170" as="geometry" />
        </mxCell>
        <mxCell id="AR4hpozQpc_tkKagfJMo-23" value="" style="endArrow=none;html=1;rounded=0;entryX=1.053;entryY=0.318;entryDx=0;entryDy=0;entryPerimeter=0;exitX=0.75;exitY=0;exitDx=0;exitDy=0;edgeStyle=orthogonalEdgeStyle;" edge="1" parent="1" source="AR4hpozQpc_tkKagfJMo-22" target="AR4hpozQpc_tkKagfJMo-20">
          <mxGeometry width="50" height="50" relative="1" as="geometry">
            <mxPoint x="532" y="590" as="sourcePoint" />
            <mxPoint x="582" y="540" as="targetPoint" />
            <Array as="points">
              <mxPoint x="582" y="170" />
              <mxPoint x="742" y="170" />
              <mxPoint x="742" y="318" />
            </Array>
          </mxGeometry>
        </mxCell>
        <mxCell id="AR4hpozQpc_tkKagfJMo-24" value="" style="endArrow=none;html=1;rounded=0;" edge="1" parent="1">
          <mxGeometry width="50" height="50" relative="1" as="geometry">
            <mxPoint x="532" y="550" as="sourcePoint" />
            <mxPoint x="532" y="420" as="targetPoint" />
          </mxGeometry>
        </mxCell>
        <mxCell id="AR4hpozQpc_tkKagfJMo-25" value="" style="endArrow=none;html=1;rounded=0;edgeStyle=orthogonalEdgeStyle;entryX=0.5;entryY=0;entryDx=0;entryDy=0;" edge="1" parent="1" target="AR4hpozQpc_tkKagfJMo-22">
          <mxGeometry width="50" height="50" relative="1" as="geometry">
            <mxPoint x="732" y="360" as="sourcePoint" />
            <mxPoint x="552" y="160" as="targetPoint" />
            <Array as="points">
              <mxPoint x="802" y="360" />
              <mxPoint x="802" y="160" />
              <mxPoint x="552" y="160" />
            </Array>
          </mxGeometry>
        </mxCell>
        <mxCell id="AR4hpozQpc_tkKagfJMo-26" value="real_addr来自取指还是执行待定" style="text;html=1;align=center;verticalAlign=middle;resizable=0;points=[];autosize=1;strokeColor=none;fillColor=none;" vertex="1" parent="1">
          <mxGeometry x="627" y="350" width="190" height="20" as="geometry" />
        </mxCell>
        <mxCell id="AR4hpozQpc_tkKagfJMo-27" value="" style="endArrow=none;html=1;rounded=0;entryX=0.052;entryY=0.323;entryDx=0;entryDy=0;entryPerimeter=0;exitX=1;exitY=0.5;exitDx=0;exitDy=-5;exitPerimeter=0;" edge="1" parent="1" source="AR4hpozQpc_tkKagfJMo-3" target="AR4hpozQpc_tkKagfJMo-20">
          <mxGeometry width="50" height="50" relative="1" as="geometry">
            <mxPoint x="300" y="470" as="sourcePoint" />
            <mxPoint x="350" y="420" as="targetPoint" />
          </mxGeometry>
        </mxCell>
        <mxCell id="AR4hpozQpc_tkKagfJMo-33" value="" style="endArrow=none;html=1;rounded=0;elbow=vertical;entryX=0.014;entryY=0.549;entryDx=0;entryDy=0;entryPerimeter=0;edgeStyle=orthogonalEdgeStyle;exitX=0.475;exitY=0.033;exitDx=0;exitDy=0;exitPerimeter=0;" edge="1" parent="1" source="AR4hpozQpc_tkKagfJMo-34" target="AR4hpozQpc_tkKagfJMo-22">
          <mxGeometry width="50" height="50" relative="1" as="geometry">
            <mxPoint x="400" y="260" as="sourcePoint" />
            <mxPoint x="360" y="640" as="targetPoint" />
            <Array as="points">
              <mxPoint x="400" y="217" />
              <mxPoint x="400" y="643" />
            </Array>
          </mxGeometry>
        </mxCell>
        <mxCell id="AR4hpozQpc_tkKagfJMo-40" style="edgeStyle=orthogonalEdgeStyle;rounded=0;orthogonalLoop=1;jettySize=auto;html=1;exitX=1;exitY=0.5;exitDx=0;exitDy=-5;exitPerimeter=0;entryX=0;entryY=0.2;entryDx=0;entryDy=3;entryPerimeter=0;" edge="1" parent="1" source="AR4hpozQpc_tkKagfJMo-34" target="AR4hpozQpc_tkKagfJMo-7">
          <mxGeometry relative="1" as="geometry" />
        </mxCell>
        <mxCell id="AR4hpozQpc_tkKagfJMo-34" value="mux" style="shadow=0;dashed=0;align=center;html=1;strokeWidth=1;shape=mxgraph.electrical.abstract.mux2;rotation=0;direction=west;" vertex="1" parent="1">
          <mxGeometry x="380" y="140" width="40" height="80" as="geometry" />
        </mxCell>
        <mxCell id="AR4hpozQpc_tkKagfJMo-35" value="" style="endArrow=none;html=1;rounded=0;elbow=vertical;entryX=0;entryY=0.75;entryDx=0;entryDy=0;edgeStyle=orthogonalEdgeStyle;exitX=0;exitY=0.2;exitDx=0;exitDy=3;exitPerimeter=0;" edge="1" parent="1" source="AR4hpozQpc_tkKagfJMo-34" target="AR4hpozQpc_tkKagfJMo-22">
          <mxGeometry width="50" height="50" relative="1" as="geometry">
            <mxPoint x="450" y="220" as="sourcePoint" />
            <mxPoint x="430" y="680" as="targetPoint" />
            <Array as="points">
              <mxPoint x="450" y="201" />
              <mxPoint x="450" y="678" />
            </Array>
          </mxGeometry>
        </mxCell>
        <mxCell id="AR4hpozQpc_tkKagfJMo-36" value="分支预测地址" style="text;html=1;align=center;verticalAlign=middle;resizable=0;points=[];autosize=1;strokeColor=none;fillColor=none;" vertex="1" parent="1">
          <mxGeometry x="415" y="680" width="90" height="20" as="geometry" />
        </mxCell>
        <mxCell id="AR4hpozQpc_tkKagfJMo-37" value="分支预测是否成功" style="text;html=1;align=center;verticalAlign=middle;resizable=0;points=[];autosize=1;strokeColor=none;fillColor=none;" vertex="1" parent="1">
          <mxGeometry x="417" y="625" width="110" height="20" as="geometry" />
        </mxCell>
        <mxCell id="AR4hpozQpc_tkKagfJMo-39" value="静态分支预测" style="text;html=1;align=center;verticalAlign=middle;resizable=0;points=[];autosize=1;strokeColor=none;fillColor=none;" vertex="1" parent="1">
          <mxGeometry x="425" y="570" width="90" height="20" as="geometry" />
        </mxCell>
      </root>
    </mxGraphModel>
  </diagram>
</mxfile>
